<svg width="178" height="40" viewBox="0 0 178 40" fill="none" xmlns="http://www.w3.org/2000/svg">
<path d="M33.1904 6.11108C32.0823 7.52048 30.6779 9.38682 30.562 9.6185C30.4847 9.76652 30.388 10.0883 30.3429 10.3264C30.3043 10.5645 30.1819 10.9378 30.0788 11.1502C29.8791 11.5621 28.5842 13.2933 28.4296 13.3512C28.378 13.3705 28.2041 13.2353 27.9851 12.9908C27.6114 12.5789 27.3988 12.5017 27.1733 12.6754C27.1154 12.7205 26.2972 14.0012 25.3437 15.5264C24.3967 17.0452 23.5657 18.3581 23.4948 18.4353C23.3015 18.6541 23.1469 18.6155 22.8441 18.2873C22.638 18.0621 22.5349 17.9977 22.4125 18.017C22.2836 18.0299 21.968 18.4933 20.6731 20.514C19.5199 22.316 19.0432 23.0046 18.9272 23.0497C18.7984 23.0947 18.6824 23.0561 18.3152 22.8373C17.89 22.5863 17.5872 22.5155 17.4197 22.6249C17.3811 22.6507 16.6016 23.4937 15.6932 24.5041C14.7848 25.5145 13.9667 26.364 13.8765 26.4027C13.7541 26.4477 13.6574 26.4284 13.4449 26.3126C13.2902 26.2289 13.1227 26.171 13.0712 26.1838C13.0132 26.1967 12.5623 26.673 12.0662 27.2457C11.5702 27.8121 10.9002 28.5522 10.5716 28.8933L9.98535 29.5111L11.029 29.5561C11.6088 29.5754 14.0633 29.5819 16.492 29.5626C18.9208 29.5433 29.3379 29.5304 39.6456 29.5304L58.3861 29.5239L57.9738 29.0863C57.0719 28.1532 56.6016 27.1556 56.3826 25.7076C56.2473 24.8324 56.054 24.5492 54.6303 23.1398C53.8379 22.3546 53.2903 21.8655 53.213 21.8655C53.1357 21.8655 52.9553 22.0329 52.7363 22.3096C52.3433 22.7987 52.1243 22.9081 51.8344 22.7536C51.7506 22.7086 50.8358 21.6853 49.805 20.4819C48.7743 19.2784 47.8401 18.2294 47.7306 18.1457C47.4536 17.9527 47.1379 17.9591 46.8674 18.1715C46.41 18.519 45.8559 18.5769 45.3534 18.3259C45.0378 18.165 44.9347 18.0363 44.2325 16.9616L43.6205 16.0091L44.9862 14.7928L46.352 13.57L46.7256 15.0631C46.9318 15.8868 47.1122 16.6012 47.1315 16.6527C47.1508 16.7106 47.2668 16.5239 47.415 16.2022C47.5502 15.8997 48.5617 13.7051 49.6633 11.3175C50.7649 8.92989 51.654 6.96702 51.6475 6.95415C51.6346 6.94771 49.2446 7.78434 46.3327 8.82048C42.8796 10.0433 41.0758 10.7126 41.1466 10.7447C41.211 10.7705 41.9261 10.9056 42.7443 11.0537C43.556 11.2017 44.2389 11.3304 44.2518 11.3497C44.2776 11.3754 41.3914 14.22 41.2948 14.2586C41.2755 14.265 40.8889 13.673 40.438 12.9393C39.987 12.1992 39.491 11.4398 39.3363 11.2403C39.1817 11.0408 38.6663 10.5645 38.1896 10.1848C37.0042 9.22593 36.9398 9.15514 35.4452 7.44969C34.7237 6.61949 34.073 5.88583 34.0021 5.82147C33.7445 5.60266 33.5383 5.67345 33.1904 6.11108ZM34.131 6.52939C34.3178 6.79325 34.6077 7.26306 34.7688 7.5591C35.0329 8.0482 35.0716 8.17048 35.1811 8.94919C35.2906 9.71504 35.3421 9.89523 35.7222 10.7898C35.9542 11.3368 36.1345 11.7873 36.1217 11.8002C36.1088 11.8131 35.8317 11.4913 35.4968 11.0858C35.1682 10.6739 34.8912 10.3522 34.8783 10.365C34.8654 10.3779 34.8783 10.6611 34.9169 10.9957C35.0007 11.8324 35.2842 12.5596 36.1603 14.1814L36.8818 15.5264L36.8496 16.8457C36.811 18.3002 36.8174 18.2937 36.5533 16.8779C36.4695 16.4467 36.3536 16.1249 36.1023 15.623C35.9026 15.2368 35.7738 15.0309 35.7931 15.1403C35.806 15.2433 35.9219 15.964 36.0443 16.7299C36.2183 17.8111 36.3085 18.2101 36.4438 18.4868C36.5404 18.6799 36.637 18.8408 36.6628 18.8408C36.6886 18.8408 37.7387 17.8304 38.9949 16.5883L41.2819 14.3358L41.385 14.4967C41.5267 14.7091 41.5847 14.7027 41.881 14.4324C42.1516 14.1878 42.2483 14.1621 42.4029 14.2843C42.5188 14.3809 43.5496 15.9254 43.5496 16.0091C43.5496 16.0348 43.002 16.5561 42.332 17.1546L41.1144 18.2487L41.3463 18.6541C41.4752 18.8794 41.6105 19.2269 41.6556 19.42L41.7329 19.7739L41.7393 19.4908C41.7458 19.1239 41.8746 18.3903 41.9326 18.3903C41.9519 18.3903 42.2032 18.622 42.4866 18.9051C43.0342 19.4586 43.7429 20.0442 43.7429 19.9477C43.7429 19.922 43.672 19.6774 43.5818 19.42C43.4916 19.1626 43.4336 18.9373 43.4465 18.9244C43.4594 18.9116 44.1165 19.4522 44.9089 20.1343C46.2553 21.2799 46.6999 21.6789 46.4486 21.4987C46.3584 21.4343 45.6111 20.8358 44.3742 19.819C44.065 19.568 43.7944 19.3556 43.7815 19.3556C43.73 19.3556 43.9555 19.967 44.0392 20.07C44.1745 20.2244 44.1487 20.2631 43.9555 20.1858C43.7235 20.1022 43.2275 19.7289 42.6863 19.2398C42.3771 18.9695 42.216 18.8601 42.1709 18.9051C42.1323 18.9437 42.0872 19.3428 42.0679 19.7933C42.0421 20.3725 42.0034 20.6685 41.9326 20.7972L41.8231 20.9903L41.778 20.6363C41.6427 19.6324 41.5009 19.1046 41.2626 18.7121C41.0629 18.3774 41.0113 18.3324 40.9276 18.4032C40.831 18.4804 40.8374 18.6928 40.9405 19.1626C40.9662 19.2591 40.9211 19.214 40.8245 19.0403C40.6699 18.7636 40.6635 18.7571 40.6184 18.9116C40.5668 19.0596 40.5604 19.0596 40.5282 18.9309C40.496 18.815 40.1996 19.0532 38.4344 20.6428C37.3006 21.6532 36.3665 22.5155 36.3536 22.5477C36.3407 22.5799 36.4309 22.67 36.5533 22.7408C36.8625 22.9145 39.2912 24.6586 39.2912 24.7037C39.3041 24.8066 37.9384 24.0215 37.1138 23.4551C36.6048 23.1012 36.141 22.8116 36.083 22.8051C36.025 22.8051 35.9542 22.8631 35.9155 22.9403C35.8833 23.0239 35.8253 23.0883 35.7867 23.0883C35.7093 23.0883 35.3679 23.3779 34.0923 24.5235C33.5834 24.9804 33.1518 25.3343 33.126 25.315C33.1002 25.2893 32.3143 24.2532 31.3737 23.0046C30.4331 21.7561 29.6343 20.7393 29.5956 20.7393C29.557 20.7393 28.2105 21.9878 26.6 23.5066C24.9894 25.0319 23.2435 26.6794 22.7217 27.1685L21.7683 28.0566L21.4526 27.8442C20.9243 27.4774 19.6488 26.5636 19.0367 26.1131C18.7211 25.8749 18.283 25.566 18.0704 25.4116L17.6774 25.1413L16.0862 26.1388C15.21 26.6923 14.3146 27.2586 14.102 27.4066C13.8894 27.5482 13.7025 27.6576 13.6897 27.6447C13.6381 27.5933 13.928 26.718 14.0311 26.615C14.0955 26.5507 14.4305 26.3576 14.7848 26.1838C15.3711 25.8942 15.5257 25.772 16.5565 24.8066L17.6903 23.7512L17.9093 23.8928C18.0318 23.97 18.2701 24.1116 18.4376 24.2081L18.7468 24.3883L18.8113 24.2081C18.8499 24.1116 19.1012 23.8027 19.3717 23.5131C19.6423 23.2235 20.2157 22.5735 20.6473 22.0586C21.0789 21.5437 21.6201 20.9581 21.8456 20.7522L22.2579 20.3853L21.7489 20.6106C21.4655 20.7329 21.2271 20.823 21.2142 20.8101C21.1949 20.7972 21.3882 20.4111 21.633 19.9541C22.026 19.2334 22.1162 19.1111 22.361 18.9695C22.5156 18.8794 22.7926 18.7957 22.973 18.7764C23.2951 18.7442 23.3402 18.7121 24.3065 17.8561L25.2986 16.968L25.7367 16.0477C26.0975 15.2819 26.207 15.1017 26.3745 15.0116C26.5098 14.9343 26.7095 14.6962 26.9479 14.3101C27.5341 13.3769 27.4632 13.422 27.7918 13.7566C27.9851 13.9626 28.1203 14.1814 28.2363 14.5032C28.3909 14.9408 28.3974 14.9858 28.3329 15.5972C28.2685 16.2279 28.2685 16.2472 28.5584 17.5858C28.7195 18.3259 28.8419 18.9437 28.8354 18.9566C28.8226 18.9631 28.4489 18.3645 28.0044 17.618L27.1927 16.2601L26.819 16.9101C26.6129 17.2705 25.9944 18.2487 25.4404 19.0853L24.4418 20.6106L23.5721 21.3764C23.0954 21.8012 22.6444 22.2066 22.5671 22.271C22.4834 22.3418 22.4189 22.3868 22.4189 22.3739C22.4189 22.3546 22.7153 21.9428 23.0825 21.4601C23.643 20.72 23.7718 20.5012 23.92 20.0507C24.0102 19.7611 24.081 19.5165 24.0746 19.5101C24.0682 19.5036 23.7074 19.8061 23.2693 20.1858C22.5671 20.7908 22.4576 20.9195 22.2643 21.3185C22.1484 21.5631 21.9487 21.8848 21.8262 22.0264C21.7038 22.168 21.3753 22.5413 21.0983 22.8631C20.0675 24.0601 19.9515 24.1888 19.9258 24.1566C19.9065 24.1373 19.9709 23.9893 20.0675 23.822L20.2414 23.5259L19.6616 24.0279C19.3395 24.3111 19.0947 24.5556 19.1205 24.5814C19.1591 24.6136 20.6989 25.5274 21.5943 26.0423L21.7747 26.1452L26.0588 21.8655C29.9177 18.017 30.3558 17.5987 30.4331 17.6952C30.4782 17.7596 31.1031 18.8215 31.8247 20.0636C32.5462 21.2992 33.1518 22.316 33.1711 22.316C33.1969 22.316 33.3966 22.1358 33.6156 21.9106L34.015 21.5116L33.3644 20.971C33.01 20.6749 32.733 20.4175 32.7523 20.3982C32.7717 20.3789 33.1067 20.5784 33.4996 20.8358L34.2147 21.3121L35.3035 20.2244L36.3922 19.1433L36.1088 18.7507C35.8704 18.4096 35.7931 18.2165 35.5418 17.2576C35.2584 16.2022 35.2326 16.1314 34.7366 15.3269C34.015 14.1492 34.0086 14.117 34.5304 14.6254L34.9943 15.0759L34.9556 14.8507C34.9363 14.7284 34.9041 14.4967 34.8783 14.3358C34.8525 14.1621 34.6335 13.6537 34.3307 13.0744L33.8218 12.1091L33.8733 11.4012C33.9248 10.7319 33.7895 8.80761 33.6865 8.71108C33.6671 8.69177 33.6156 8.88484 33.5705 9.13583C33.5254 9.39325 33.3257 10.4037 33.1324 11.3754L32.7846 13.1452L32.7523 14.8829L32.7266 16.6205L32.9263 15.9769C33.0422 15.6101 33.1904 14.87 33.2742 14.2457C33.3579 13.6537 33.4417 13.1452 33.461 13.1259C33.4803 13.1066 33.4996 13.6086 33.4996 14.2457C33.4996 15.1274 33.4674 15.5522 33.3708 16.0735C33.2999 16.4467 33.242 16.7749 33.242 16.8007C33.242 16.8329 33.3708 16.8457 33.5319 16.8329C33.6929 16.82 33.8218 16.8264 33.8218 16.8457C33.8218 16.865 33.5061 17.0517 33.1131 17.264C32.4173 17.6502 32.34 17.721 32.34 18.0492C32.34 18.3131 32.2176 18.2036 31.9535 17.6952C31.8053 17.4249 31.7023 17.2705 31.7216 17.3606C31.902 18.2873 31.9084 18.3838 31.8247 18.77C31.7796 18.9888 31.7216 19.1754 31.7023 19.1883C31.6636 19.214 28.6679 13.8853 28.6679 13.7888C28.6679 13.7051 30.1239 12.0512 31.1804 10.9249C31.728 10.3393 32.1017 9.91454 32.005 9.9789C31.902 10.0368 31.7473 10.1398 31.6507 10.1977C31.5476 10.2621 31.3028 10.4358 31.0967 10.5903C30.8905 10.7447 30.7101 10.8606 30.6973 10.8477C30.6779 10.8348 30.7488 10.6032 30.8519 10.3393C30.9549 10.0754 31.058 9.76009 31.0838 9.63781C31.1096 9.50266 31.3608 9.10365 31.7087 8.64028C32.6815 7.35959 33.7187 6.03385 33.7573 6.03385C33.7767 6.03385 33.9442 6.2591 34.131 6.52939Z" fill="black"/>
<path d="M34.2983 8.11289C34.337 8.44755 34.498 8.78864 34.7493 9.09111L34.9103 9.28418L34.8137 8.93022C34.7557 8.73715 34.672 8.53121 34.6269 8.47972C34.5753 8.4218 34.4787 8.24804 34.4014 8.09359L34.2661 7.80398L34.2983 8.11289Z" fill="black"/>
<path d="M30.9742 13.8217C30.7745 13.9826 30.7101 14.1113 30.5684 14.5682L30.4009 15.1217L30.6586 15.7975C30.9227 16.4668 31.3028 17.1811 31.219 16.8465C31.1933 16.7564 31.1031 16.3831 31.0129 16.0098C30.8583 15.3856 30.8454 15.2826 30.9034 14.6841C30.9485 14.1821 30.9936 13.989 31.1095 13.8346C31.2899 13.5772 31.2706 13.5772 30.9742 13.8217Z" fill="black"/>
<path d="M160.09 9.95995C157.604 10.5005 155.877 11.9936 155.426 13.9951C155.214 14.9476 155.349 16.0416 155.787 16.8654C156.057 17.3674 156.895 18.2491 157.565 18.7317C158.338 19.2852 159.775 20.0897 161.798 21.1C163.704 22.0461 164.323 22.4387 164.697 22.9406C165.077 23.4619 165.199 23.8674 165.206 24.601C165.206 25.6822 164.838 26.5832 164.078 27.3298C163.588 27.8253 163.125 28.1149 162.461 28.353C162.036 28.5075 161.907 28.5268 161.089 28.5268C160.38 28.5268 160.11 28.501 159.833 28.4045C158.454 27.9411 157.423 26.8149 156.554 24.8263C155.677 22.8119 155.671 22.8055 155.342 22.8441C155.214 22.857 155.13 22.9213 155.052 23.0887C154.949 23.2817 154.937 23.507 154.937 24.6976C154.937 26.5639 155.04 26.9436 155.813 27.8768C156.947 29.254 158.924 30.1035 160.979 30.1035C165.135 30.1035 168.427 27.1238 168.188 23.5971C168.092 22.2392 167.621 21.2609 166.623 20.3213C165.94 19.6842 165.102 19.1822 162.551 17.8951C161.25 17.2387 159.968 16.5565 159.691 16.3827C159.098 16.003 158.718 15.604 158.493 15.1213C158.344 14.806 158.319 14.6708 158.319 14.1753C158.319 13.6476 158.338 13.551 158.531 13.1649C159.227 11.7491 161.121 11.0476 162.822 11.5689C163.981 11.9293 164.716 12.8174 165.502 14.8189C165.94 15.9194 166.391 16.2798 166.752 15.7971C166.88 15.6233 166.887 15.5397 166.887 14.0916C166.887 12.6822 166.874 12.5471 166.752 12.2768C166.223 11.1441 164.793 10.2302 163.08 9.93421C162.313 9.79906 160.76 9.81193 160.09 9.95995Z" fill="black"/>
<path d="M115.284 10.3912C115.098 10.4363 114.866 10.668 114.866 10.8096C114.866 11.0412 114.995 11.1764 115.446 11.4145C116.238 11.8328 116.161 10.8031 116.141 20.019L116.122 28.0313L115.98 28.1858C115.903 28.2695 115.645 28.4368 115.407 28.5591C115.175 28.6813 114.949 28.8487 114.911 28.9259C114.821 29.1254 114.943 29.3764 115.162 29.4601C115.252 29.4987 116.051 29.5244 116.966 29.5244C118.866 29.5244 118.982 29.4987 118.989 29.061C118.989 28.8744 118.918 28.8101 118.345 28.4754C117.713 28.1086 117.765 28.7586 117.778 21.1581L117.797 14.5101L119.047 17.2066C119.736 18.6932 120.425 20.1606 120.574 20.4823C120.722 20.7977 121.392 22.2457 122.068 23.7002C124.02 27.9091 124.091 28.0507 124.362 28.2888C124.703 28.5848 124.929 28.5719 125.257 28.2244C125.47 27.9992 125.676 27.5808 126.359 25.9848C129.122 19.5427 131.197 14.7353 131.216 14.7546C131.268 14.7997 131.223 27.9412 131.171 28.0313C131.074 28.2115 130.855 28.3853 130.469 28.5912C129.934 28.8744 129.85 29.2284 130.269 29.4472C130.385 29.5051 131.023 29.518 132.943 29.5115C135.32 29.4922 135.475 29.4858 135.603 29.37C135.764 29.2219 135.777 28.9323 135.636 28.8101C135.578 28.7586 135.352 28.6299 135.14 28.5205C134.921 28.411 134.689 28.2437 134.618 28.1472C134.482 27.9734 134.482 27.9348 134.463 20.0447C134.45 14.1754 134.47 12.0709 134.521 11.9358C134.592 11.7749 134.811 11.6076 135.384 11.3051C135.848 11.0606 135.848 10.5779 135.391 10.4234C135.043 10.314 132.144 10.3526 131.783 10.4813C131.648 10.5264 131.409 10.6808 131.255 10.8289C130.984 11.0734 130.843 11.3823 128.298 17.3224C126.829 20.7526 125.611 23.5714 125.599 23.5843C125.579 23.6036 124.49 21.3061 123.511 19.163C121.07 13.8536 119.916 11.4145 119.646 10.9705C119.459 10.6808 119.092 10.4878 118.564 10.4106C118.119 10.3462 115.529 10.3333 115.284 10.3912Z" fill="black"/>
<path d="M63.5788 10.5071C63.3662 10.6229 63.3018 10.8482 63.4306 11.0348C63.4822 11.1185 63.6948 11.2665 63.9009 11.3695C64.3132 11.5818 64.616 11.8908 64.616 12.1031C64.6289 20.212 64.6031 27.9477 64.558 28.0313C64.4614 28.2115 64.2423 28.3853 63.8558 28.5912C63.3147 28.8808 63.2051 29.2284 63.5917 29.4279C63.7463 29.5115 64.4163 29.5244 67.966 29.5244C70.5042 29.5244 72.4047 29.4987 72.7848 29.4536C77.2429 28.9645 80.4189 26.2744 81.295 22.2457C81.8298 19.7744 81.4625 17.2259 80.2707 15.1536C78.9758 12.8818 76.6373 11.2408 73.8864 10.668C72.7848 10.4427 72.3467 10.4234 68.0304 10.417C64.4292 10.417 63.7205 10.4299 63.5788 10.5071ZM71.986 12.116C74.769 12.5343 76.7339 14.2462 77.7518 17.1229C78.4991 19.2467 78.5055 22.2393 77.7647 24.1571C77.1333 25.7789 75.9351 26.9759 74.3954 27.5101C73.4097 27.8511 72.8492 27.9091 70.2401 27.9155H67.8371V19.9675V12.0195H69.5959C70.8199 12.0195 71.5414 12.0516 71.986 12.116Z" fill="black"/>
<path d="M87.0994 10.4556C86.9061 10.5328 86.7772 10.6937 86.7772 10.861C86.7772 11.0799 86.8868 11.1764 87.4666 11.466C87.7243 11.5947 87.9819 11.7685 88.0335 11.8521C88.1301 11.9937 88.1237 12.0323 87.9819 12.3799C87.4344 13.712 81.1274 27.7932 81.005 27.9541C80.9212 28.07 80.6313 28.2695 80.3221 28.4304C80.0257 28.5784 79.7358 28.7521 79.6779 28.8036C79.5039 28.9516 79.5297 29.2348 79.7294 29.3893C79.8969 29.518 79.9806 29.5244 81.6685 29.5244C83.6785 29.5244 83.8138 29.4987 83.8138 29.119C83.8138 28.8551 83.788 28.8229 83.395 28.5591C83.0021 28.2952 82.9183 28.1922 82.9119 27.9799C82.9119 27.8383 83.5303 26.416 84.7673 23.713L84.967 23.2818H88.7293H92.4915L93.3677 25.5601C93.8509 26.815 94.2503 27.8833 94.2503 27.9348C94.2503 28.1086 94.0055 28.3338 93.5738 28.5591C93.329 28.6813 93.11 28.8487 93.0713 28.9259C92.9812 29.1254 93.1036 29.3764 93.3226 29.4665C93.4321 29.5051 94.45 29.5244 96.0863 29.5115C98.5344 29.4922 98.689 29.4858 98.8179 29.37C99.1142 29.0997 98.9338 28.7714 98.3025 28.411C97.8902 28.1794 97.7098 27.9412 97.4843 27.3556C97.3812 27.0789 95.9639 23.3076 94.3405 18.9764C92.0084 12.7338 91.3513 11.0541 91.1966 10.8739C90.8423 10.4685 90.7328 10.4492 88.871 10.4299C87.9497 10.4234 87.1509 10.4299 87.0994 10.4556ZM90.4751 17.8051C91.2417 19.9096 91.8602 21.6408 91.8473 21.6536C91.8344 21.6665 90.4429 21.6665 88.7615 21.6601L85.7014 21.6408L87.3764 17.7922C88.2976 15.6813 89.0578 13.9566 89.0707 13.963C89.0771 13.9759 89.7085 15.7007 90.4751 17.8051Z" fill="black"/>
<path d="M100.235 10.507C99.8552 10.713 99.9776 11.0605 100.532 11.3565C100.744 11.4659 100.995 11.6526 101.092 11.7555L101.272 11.955V19.961V27.9669L101.105 28.1729C101.008 28.2823 100.764 28.456 100.557 28.5654C100.139 28.7778 99.9711 28.9709 100.029 29.1897C100.119 29.5372 99.9067 29.5244 106.858 29.5244H113.294L113.493 28.0828C113.609 27.2912 113.68 26.5768 113.661 26.4932C113.603 26.2486 113.448 26.1135 113.216 26.1135C112.965 26.1135 112.798 26.2937 112.379 27.0209C112.218 27.2976 111.986 27.613 111.864 27.7159L111.638 27.9154H108.069H104.494V19.9803C104.494 12.2253 104.5 12.0451 104.622 11.8456C104.687 11.7298 104.899 11.556 105.086 11.4466C105.66 11.1313 105.718 11.0669 105.718 10.8288C105.718 10.4169 105.666 10.4105 102.87 10.4105C100.86 10.4169 100.371 10.4298 100.235 10.507Z" fill="black"/>
<path d="M137.149 10.507C136.937 10.6229 136.872 10.8481 137.001 11.0347C137.053 11.1184 137.265 11.2664 137.472 11.3694C137.678 11.4788 137.923 11.6526 138.019 11.762L138.187 11.9679V17.5733C138.193 20.6625 138.206 23.3268 138.219 23.507C138.277 24.1763 138.328 24.5496 138.412 24.9229C139.018 27.5679 140.886 29.2733 143.875 29.9233C144.771 30.1164 146.761 30.1357 147.579 29.9555C150.182 29.3828 151.857 27.9412 152.637 25.5986C153.043 24.3887 153.023 24.7105 153.062 18.0689L153.1 11.9872L153.242 11.7941C153.313 11.6847 153.564 11.5045 153.796 11.3823C154.035 11.26 154.247 11.0927 154.286 11.009C154.376 10.8095 154.273 10.5521 154.067 10.4748C153.809 10.3783 150.691 10.3912 150.498 10.4941C150.053 10.7194 150.156 11.0476 150.781 11.3758C151.052 11.5238 151.29 11.704 151.38 11.8328L151.529 12.0451L151.503 17.9724C151.483 23.8224 151.483 23.8996 151.342 24.4209C150.794 26.4867 149.39 27.954 147.464 28.4753C146.851 28.6427 145.486 28.6233 144.79 28.4367C144.178 28.2758 143.489 27.9476 143.063 27.6194C142.413 27.111 141.839 26.1392 141.588 25.0966C141.453 24.5496 141.446 24.408 141.427 18.2941C141.401 11.1634 141.35 11.8134 142 11.4466C142.542 11.1441 142.632 11.0669 142.632 10.8738C142.625 10.4169 142.58 10.4105 139.784 10.4105C137.774 10.4169 137.285 10.4298 137.149 10.507Z" fill="black"/>
</svg>
