<svg width="124" height="34" viewBox="0 0 124 34" fill="none" xmlns="http://www.w3.org/2000/svg">
<path d="M20.0137 0V33.3135L15.4941 26.0059V15.3672H9.25391L6.24121 10.5312H15.4941V6.33984H3.6582L0 0H20.0137ZM37.9834 6.33984H26.1475V10.5312H35.293L32.3877 15.3672H26.1475V26.0059L21.6279 33.3135V0H41.6416L37.9834 6.33984Z" fill="#FEFEFE"/>
<path fill-rule="evenodd" clip-rule="evenodd" d="M71.3192 19.1451V25.9104H67.515V19.1451L61.0752 6.47754H65.3684L69.4443 15.3587L73.493 6.47754H77.7319L71.3192 19.1451ZM51.1019 17.6974V25.9104H47.1943V6.47755H59.2242V9.62355H51.1019V14.607H57.3262V17.6974H51.1019ZM89.7614 25.9104V22.7411H82.4955V17.5979H88.9388V14.512H82.4955V9.64684H89.7614V6.47754H78.6569V25.9104H89.7614ZM97.4342 18.3377V25.9104H93.4632V6.47754H100.895C102.426 6.47754 103.731 6.74203 104.809 7.271C105.887 7.79997 106.695 8.51455 107.234 9.41474C107.773 10.3149 108.042 11.3218 108.042 12.4355C108.042 13.7161 107.664 14.8715 106.908 15.9016C106.151 16.9317 105.026 17.6417 103.532 18.0314L108.269 25.9104H103.674L99.3062 18.3377H97.4342ZM100.914 14.8059H98.0899V9.25361H100.914C101.832 9.25361 102.516 9.49286 102.966 9.97134C103.417 10.4498 103.642 11.1224 103.642 11.9891C103.642 12.8739 103.417 13.5645 102.966 14.061C102.516 14.5576 101.832 14.8059 100.914 14.8059ZM120.873 25.1358C119.849 25.6522 118.633 25.9104 117.225 25.9104C115.89 25.9104 114.687 25.6839 113.617 25.2309C112.548 24.7779 111.702 24.1256 111.08 23.274C110.458 22.4224 110.138 21.4168 110.12 20.2572H114.235C114.29 21.0363 114.568 21.6524 115.071 22.1053C115.574 22.5583 116.265 22.7848 117.142 22.7848C118.039 22.7848 118.743 22.5719 119.255 22.1461C119.767 21.7203 120.023 21.1631 120.023 20.4746C120.023 19.9129 119.849 19.4509 119.502 19.0885C119.154 18.7261 118.72 18.4407 118.199 18.2324C117.677 18.024 116.96 17.793 116.045 17.5393C114.802 17.1769 113.791 16.8191 113.014 16.4657C112.237 16.1124 111.569 15.5779 111.011 14.8622C110.454 14.1465 110.175 13.1907 110.175 11.9948C110.175 10.8714 110.458 9.89301 111.025 9.05952C111.592 8.22604 112.388 7.58734 113.412 7.14342C114.436 6.6995 115.606 6.47754 116.923 6.47754C118.898 6.47754 120.503 6.95317 121.737 7.90443C122.972 8.85568 123.653 10.1829 123.781 11.8861H119.556C119.52 11.2338 119.241 10.6948 118.72 10.269C118.199 9.84318 117.508 9.63028 116.649 9.63028C115.899 9.63028 115.3 9.82053 114.852 10.201C114.404 10.5815 114.18 11.1342 114.18 11.8589C114.18 12.3663 114.349 12.7875 114.687 13.1228C115.026 13.458 115.446 13.7297 115.949 13.9381C116.452 14.1465 117.161 14.3866 118.075 14.6584C119.319 15.0207 120.334 15.3831 121.12 15.7455C121.906 16.1079 122.583 16.6515 123.15 17.3762C123.717 18.101 124 19.0523 124 20.23C124 21.2447 123.735 22.1869 123.205 23.0566C122.675 23.9263 121.897 24.6194 120.873 25.1358Z" fill="#FEFEFE"/>
</svg>
