<svg width="240" height="29" viewBox="0 0 240 29" fill="none" xmlns="http://www.w3.org/2000/svg">
<g clip-path="url(#clip0_42283_14134)">
<path d="M0 27.5982L5.40178 0L14.2122 19.9516L23.3425 0L28.1964 27.5982H24.2221L21.7463 12.1036L14.1471 28.7798L6.76407 12.0888L4.00395 27.6012H0V27.5982Z" fill="white"/>
<path d="M48.3753 21.3638H37.3851L34.5243 27.5977H30.3516L43.0534 0.316406L55.3052 27.5977H51.0643L48.3723 21.3638H48.3753ZM46.7968 17.7241L42.9883 8.99655L38.9991 17.7241H46.7968Z" fill="white"/>
<path d="M66.8698 16.6602L74.8155 27.6H70.0771L62.7444 17.0926H62.0455V27.6H58.1719V1.92969H62.7119C66.1028 1.92969 68.5519 2.56641 70.0593 3.84282C71.7207 5.26137 72.5529 7.13304 72.5529 9.46078C72.5529 11.2791 72.0317 12.8428 70.9892 14.1488C69.9468 15.4578 68.5727 16.293 66.8668 16.6602H66.8698ZM62.0485 13.7165H63.2775C66.9468 13.7165 68.78 12.3157 68.78 9.51112C68.78 6.88427 66.9942 5.56937 63.4256 5.56937H62.0455V13.7165H62.0485Z" fill="white"/>
<path d="M81.6988 12.1705L91.6909 1.92969H96.8617L85.2585 13.5506L96.9298 27.6H91.7412L82.4984 16.1775L81.7018 16.9741V27.597H77.8281V1.92969H81.7018V12.1705H81.6988Z" fill="white"/>
<path d="M113.696 5.57233H103.405V11.7411H113.397V15.3808H103.405V23.9603H113.696V27.6H99.5312V1.92969H113.696V5.56937V5.57233Z" fill="white"/>
<path d="M126.713 5.57233V27.6H122.84V5.57233H116.938V1.92969H132.598V5.56937H126.713V5.57233Z" fill="white"/>
<path d="M142.349 1.92578L146.777 18.5072L152.226 1.92578H157.539L162.988 18.5072L167.415 1.92578H174.396L166.734 27.599H159.926L154.885 12.7204L149.845 27.599H143.036L135.375 1.92578H142.355H142.349Z" fill="#BAFF00"/>
<path d="M175.375 14.7628C175.375 12.8555 175.727 11.0816 176.429 9.43502C177.134 7.78842 178.108 6.35506 179.358 5.129C180.605 3.90294 182.101 2.94341 183.836 2.25042C185.571 1.55743 187.485 1.21094 189.572 1.21094C191.66 1.21094 193.544 1.55743 195.294 2.25042C197.041 2.94341 198.546 3.90294 199.804 5.129C201.063 6.35506 202.046 7.79139 202.751 9.43502C203.453 11.0816 203.805 12.8555 203.805 14.7628C203.805 16.67 203.453 18.4469 202.751 20.0905C202.046 21.7371 201.066 23.1704 199.804 24.3965C198.546 25.6226 197.041 26.5821 195.294 27.2721C193.547 27.9651 191.64 28.3116 189.572 28.3116C187.505 28.3116 185.571 27.9651 183.836 27.2721C182.101 26.5791 180.608 25.6196 179.358 24.3965C178.108 23.1704 177.134 21.7341 176.429 20.0905C175.724 18.4439 175.375 16.67 175.375 14.7628ZM182.355 14.7628C182.355 15.7845 182.548 16.7262 182.933 17.588C183.318 18.4498 183.839 19.1991 184.499 19.8358C185.157 20.4725 185.924 20.9641 186.798 21.3165C187.671 21.669 188.595 21.8437 189.572 21.8437C190.55 21.8437 191.474 21.669 192.347 21.3165C193.221 20.9641 193.994 20.4725 194.663 19.8358C195.333 19.202 195.86 18.4528 196.248 17.588C196.633 16.7262 196.825 15.7845 196.825 14.7628C196.825 13.741 196.633 12.7993 196.248 11.9375C195.863 11.0757 195.333 10.3264 194.663 9.68971C193.994 9.05595 193.221 8.56138 192.347 8.20896C191.474 7.85654 190.547 7.68181 189.572 7.68181C188.598 7.68181 187.671 7.85654 186.798 8.20896C185.924 8.56138 185.157 9.05595 184.499 9.68971C183.842 10.3264 183.318 11.0757 182.933 11.9375C182.548 12.7993 182.355 13.741 182.355 14.7628Z" fill="#BAFF00"/>
<path d="M213.852 1.92578V21.9455H221.854V27.599H207.18V1.92578H213.852Z" fill="#BAFF00"/>
<path d="M240.004 7.57928H231.969V11.8705H239.29V17.521H231.969V27.599H225.297V1.92578H240.007V7.57632L240.004 7.57928Z" fill="#BAFF00"/>
</g>
<defs>
<clipPath id="clip0_42283_14134">
<rect width="240" height="28.7798" fill="white"/>
</clipPath>
</defs>
</svg>
