<svg width="190" height="60" viewBox="0 0 190 60" fill="none" xmlns="http://www.w3.org/2000/svg">
<g clip-path="url(#clip0_114_66)">
<path d="M5.57854 59.1161V53.5407L3.59544 59.1161H2.8798L0.829883 53.5992V59.1161H0V52.8806H1.41619L3.25702 57.9669L5.01594 52.8806H6.38902V59.1161H5.57638H5.57854Z" fill="#844442"/>
<path d="M7.83107 59.1161V52.8806H11.683V53.6208H8.66095V55.5146H11.558V56.2505H8.66095V58.3716H11.7563V59.1161H7.83323H7.83107Z" fill="#844442"/>
<path d="M18.0225 58.8283C17.6129 58.9625 17.2292 59.0642 16.8736 59.1313C16.5179 59.1984 16.173 59.2309 15.8411 59.2309C14.9034 59.2309 14.1641 58.9539 13.6209 58.3976C13.0777 57.8414 12.8061 57.0882 12.8061 56.1359C12.8061 55.0818 13.0733 54.2594 13.6058 53.6707C14.1382 53.082 14.884 52.7876 15.8411 52.7876C16.5028 52.7876 17.0288 52.9348 17.4146 53.227C17.8004 53.5192 18.0031 53.9217 18.0203 54.4325H17.115C17.1042 54.1425 16.9684 53.9022 16.7097 53.7118C16.4489 53.5213 16.1234 53.4261 15.7268 53.4261C15.0845 53.4261 14.5822 53.6555 14.2201 54.1165C13.858 54.5775 13.6769 55.216 13.6769 56.0341C13.6769 56.8523 13.8687 57.4366 14.2546 57.8782C14.6383 58.3175 15.1793 58.5383 15.8755 58.5383C16.0501 58.5383 16.2377 58.521 16.4425 58.4842C16.6451 58.4474 16.88 58.3911 17.143 58.3154V56.4605H15.8497V55.7593H18.0225V58.8327V58.8283Z" fill="#844442"/>
<path d="M19.6628 59.1161H18.7985L21.439 52.8806H22.3271L24.8189 59.1161H23.8532L23.2324 57.5059H20.3548L19.6628 59.1161ZM22.9737 56.7959L21.8313 53.7226L20.6307 56.7959H22.9737Z" fill="#844442"/>
<path d="M27.9875 59.1161V52.8806H28.8174V55.5558L31.3674 52.8806H32.4797L29.7809 55.6532L32.8073 59.1161H31.6131L28.8152 55.8198V59.1161H27.9854H27.9875Z" fill="#00B4CB"/>
<path d="M33.5919 59.1161V52.8806H34.4132V58.3716H37.2391V59.1161H33.5941H33.5919Z" fill="#00B4CB"/>
<path d="M42.8284 57.4388C42.8176 57.9864 42.6085 58.4193 42.2012 58.7418C41.7938 59.0621 41.2462 59.2244 40.5586 59.2244C39.7201 59.2244 39.0778 58.9517 38.6359 58.4063C38.194 57.8609 37.972 57.0709 37.972 56.0363C37.972 55.0018 38.2026 54.2031 38.6618 53.6382C39.1209 53.0733 39.7762 52.7898 40.6233 52.7898C41.2915 52.7898 41.8196 52.9435 42.2055 53.2508C42.5913 53.5581 42.7939 53.9802 42.8069 54.5191H41.9274C41.8994 54.2053 41.7614 53.9499 41.5135 53.7508C41.2656 53.5516 40.9596 53.4499 40.5974 53.4499C40.0478 53.4499 39.6188 53.6729 39.3149 54.1209C39.011 54.5667 38.8579 55.1987 38.8579 56.0125C38.8579 56.8263 39.0045 57.4215 39.2998 57.8566C39.5951 58.2916 40.0133 58.508 40.5543 58.508C40.9466 58.508 41.2613 58.4128 41.4984 58.2245C41.7356 58.0362 41.8692 57.7743 41.9015 57.4432H42.8241L42.8284 57.4388Z" fill="#00B4CB"/>
<path d="M46.301 59.1161V52.8806H48.4651C49.1441 52.8806 49.6507 53.0235 49.9869 53.307C50.3232 53.5927 50.4892 54.0212 50.4892 54.597C50.4892 55.2116 50.293 55.6618 49.9029 55.9497C49.5127 56.2375 48.8962 56.3804 48.0621 56.3804H47.1309V59.1161H46.301ZM48.325 55.612C48.7842 55.612 49.114 55.5341 49.3123 55.3783C49.5106 55.2225 49.6097 54.9671 49.6097 54.6143C49.6097 54.2615 49.5127 53.9909 49.3166 53.8351C49.1204 53.6793 48.7906 53.6013 48.325 53.6013H47.1287V55.6142H48.325V55.612Z" fill="black"/>
<path d="M51.2781 56.0168C51.2781 54.9823 51.5239 54.1858 52.0175 53.6274C52.5111 53.069 53.2116 52.7876 54.117 52.7876C55.0223 52.7876 55.7228 53.0668 56.21 53.623C56.6971 54.1793 56.9429 54.9779 56.9429 56.0168C56.9429 57.0557 56.6971 57.8306 56.2057 58.3868C55.7142 58.943 55.018 59.2222 54.117 59.2222C53.216 59.2222 52.5197 58.9409 52.0239 58.3803C51.5282 57.8197 51.2781 57.0319 51.2781 56.0168ZM52.1662 55.9735C52.1662 56.783 52.3343 57.4063 52.6706 57.8435C53.0069 58.2807 53.4854 58.5015 54.1062 58.5015C54.727 58.5015 55.2163 58.2872 55.5504 57.8565C55.8845 57.4258 56.0505 56.8047 56.0505 55.9909C56.0505 55.1771 55.8824 54.5537 55.5482 54.1208C55.2141 53.688 54.7335 53.4715 54.1062 53.4715C53.4789 53.4715 53.0026 53.688 52.6684 54.1187C52.3343 54.5494 52.1662 55.1684 52.1662 55.9735Z" fill="black"/>
<path d="M58.15 59.1161V52.8806H58.9712V58.3716H61.7972V59.1161H58.1521H58.15Z" fill="black"/>
<path d="M64.6877 59.1161H63.8622V56.6553L61.4954 52.8806H62.5257L64.317 55.9215L66.0608 52.8806H67.0049L64.6856 56.6553V59.1161H64.6877Z" fill="black"/>
<path d="M73.3896 59.1161V53.5407L71.4065 59.1161H70.6909L68.641 53.5992V59.1161H67.8111V52.8806H69.2273L71.0681 57.9669L72.827 52.8806H74.2001V59.1161H73.3875H73.3896Z" fill="black"/>
<path d="M75.6422 59.1161V52.8806H79.4941V53.6208H76.4721V55.5146H79.3691V56.2505H76.4721V58.3716H79.5674V59.1161H75.6443H75.6422Z" fill="black"/>
<path d="M80.85 59.1161V52.8806H83.04C83.7276 52.8806 84.2449 53.017 84.592 53.2897C84.939 53.5624 85.1115 53.9693 85.1115 54.506C85.1115 54.8762 85.0102 55.19 84.8054 55.4497C84.6028 55.7094 84.3204 55.8869 83.9604 55.9821C84.2299 56.0471 84.4282 56.1445 84.5575 56.2787C84.6868 56.4107 84.7838 56.6228 84.8485 56.9128C84.8679 57.0059 84.911 57.3046 84.98 57.8089C85.049 58.3132 85.133 58.7482 85.2365 59.1161H84.3506C84.2665 58.7677 84.1954 58.3478 84.135 57.8586C84.0747 57.3695 84.0208 57.0622 83.9733 56.9345C83.8871 56.6942 83.7556 56.5297 83.581 56.4388C83.4043 56.3479 83.1176 56.3025 82.7188 56.3025H81.6798V59.1183H80.85V59.1161ZM82.8913 55.5406C83.3806 55.5406 83.7211 55.467 83.9195 55.3155C84.1156 55.1662 84.2148 54.9129 84.2148 54.5537C84.2148 54.2333 84.1221 54.0039 83.9367 53.8719C83.7513 53.7377 83.4043 53.6706 82.8934 53.6706H81.682V55.5384H82.8934L82.8913 55.5406Z" fill="black"/>
<path d="M91.1168 59.1161H90.2869V53.6295H88.2284V52.8806H93.1839V53.6295H91.1168V59.1161Z" fill="black"/>
<path d="M94.0225 59.1161V52.8806H97.8744V53.6208H94.8523V55.5146H97.7494V56.2505H94.8523V58.3716H97.9477V59.1161H94.0246H94.0225Z" fill="black"/>
<path d="M103.854 57.4388C103.843 57.9864 103.634 58.4193 103.227 58.7418C102.819 59.0643 102.272 59.2244 101.584 59.2244C100.746 59.2244 100.103 58.9517 99.6613 58.4063C99.2195 57.8609 98.9974 57.0709 98.9974 56.0363C98.9974 55.0018 99.2281 54.2031 99.6872 53.6382C100.146 53.0733 100.802 52.7898 101.649 52.7898C102.317 52.7898 102.845 52.9435 103.231 53.2508C103.617 53.5581 103.819 53.9802 103.832 54.5191H102.953C102.925 54.2053 102.787 53.9499 102.539 53.7508C102.291 53.5516 101.985 53.4499 101.623 53.4499C101.073 53.4499 100.646 53.6729 100.34 54.1209C100.034 54.5689 99.8834 55.1987 99.8834 56.0125C99.8834 56.8263 100.03 57.4215 100.325 57.8566C100.621 58.2916 101.039 58.508 101.58 58.508C101.972 58.508 102.287 58.4128 102.524 58.2245C102.761 58.0362 102.895 57.7743 102.927 57.4432H103.85L103.854 57.4388Z" fill="black"/>
<path d="M105.785 59.1161H104.938V52.8806H105.785V55.5406H108.837V52.8806H109.663V59.1161H108.837V56.283H105.785V59.1161Z" fill="black"/>
<path d="M111.103 59.1161V52.8806H112.286L115.224 57.9647V52.8806H115.974V59.1161H114.955L111.868 53.8264V59.1161H111.103Z" fill="black"/>
<path d="M117.199 56.0168C117.199 54.9823 117.445 54.1858 117.938 53.6274C118.432 53.069 119.132 52.7876 120.038 52.7876C120.943 52.7876 121.644 53.0668 122.131 53.623C122.618 54.1793 122.864 54.9779 122.864 56.0168C122.864 57.0557 122.618 57.8306 122.126 58.3868C121.635 58.943 120.939 59.2222 120.038 59.2222C119.137 59.2222 118.44 58.9409 117.945 58.3803C117.447 57.8197 117.199 57.0319 117.199 56.0168ZM118.087 55.9735C118.087 56.783 118.255 57.4063 118.591 57.8435C118.928 58.2807 119.406 58.5015 120.027 58.5015C120.648 58.5015 121.137 58.2872 121.471 57.8565C121.803 57.4258 121.971 56.8047 121.971 55.9909C121.971 55.1771 121.803 54.5537 121.469 54.1208C121.135 53.688 120.654 53.4715 120.027 53.4715C119.4 53.4715 118.923 53.688 118.589 54.1187C118.255 54.5494 118.087 55.1684 118.087 55.9735Z" fill="black"/>
<path d="M124.071 59.1161V52.8806H124.892V58.3716H127.718V59.1161H124.073H124.071Z" fill="black"/>
<path d="M128.153 56.0168C128.153 54.9823 128.399 54.1858 128.893 53.6274C129.386 53.069 130.087 52.7876 130.992 52.7876C131.897 52.7876 132.598 53.0668 133.085 53.623C133.572 54.1793 133.818 54.9779 133.818 56.0168C133.818 57.0557 133.572 57.8306 133.081 58.3868C132.589 58.943 131.893 59.2222 130.992 59.2222C130.091 59.2222 129.395 58.9409 128.899 58.3803C128.401 57.8197 128.153 57.0319 128.153 56.0168ZM129.041 55.9735C129.041 56.783 129.209 57.4063 129.546 57.8435C129.882 58.2807 130.361 58.5015 130.981 58.5015C131.602 58.5015 132.091 58.2872 132.426 57.8565C132.757 57.4258 132.926 56.8047 132.926 55.9909C132.926 55.1771 132.758 54.5537 132.423 54.1208C132.089 53.688 131.609 53.4715 130.981 53.4715C130.354 53.4715 129.878 53.688 129.544 54.1187C129.209 54.5494 129.041 55.1684 129.041 55.9735Z" fill="black"/>
<path d="M140.009 58.8283C139.599 58.9625 139.215 59.0642 138.86 59.1313C138.504 59.1984 138.159 59.2309 137.827 59.2309C136.89 59.2309 136.15 58.9539 135.607 58.3976C135.064 57.8414 134.792 57.0882 134.792 56.1359C134.792 55.0818 135.06 54.2594 135.592 53.6707C136.124 53.082 136.87 52.7876 137.827 52.7876C138.489 52.7876 139.015 52.9348 139.401 53.227C139.787 53.5192 139.989 53.9217 140.007 54.4325H139.101C139.09 54.1425 138.955 53.9022 138.696 53.7118C138.437 53.5213 138.11 53.4261 137.713 53.4261C137.071 53.4261 136.568 53.6555 136.206 54.1165C135.844 54.5775 135.663 55.216 135.663 56.0341C135.663 56.8523 135.855 57.4366 136.241 57.8782C136.627 58.3197 137.166 58.5383 137.862 58.5383C138.036 58.5383 138.224 58.521 138.429 58.4842C138.633 58.4474 138.866 58.3911 139.129 58.3154V56.4605H137.836V55.7593H140.009V58.8327V58.8283Z" fill="black"/>
<path d="M142.27 59.1161H141.44V52.8806H142.27V59.1161Z" fill="black"/>
<path d="M143.71 59.1161V52.8806H147.562V53.6208H144.54V55.5146H147.437V56.2505H144.54V58.3716H147.635V59.1161H143.712H143.71Z" fill="black"/>
<path d="M149.571 57.2895C149.588 57.6985 149.713 57.9994 149.946 58.192C150.179 58.3846 150.532 58.482 151.006 58.482C151.48 58.482 151.84 58.3846 152.11 58.192C152.379 57.9994 152.515 57.7353 152.515 57.3998C152.515 56.9259 152.034 56.5666 151.071 56.322C150.967 56.296 150.883 56.2765 150.823 56.2592C150.758 56.2419 150.664 56.2181 150.541 56.1878C150.01 56.0579 149.64 55.9303 149.428 55.8026C149.217 55.6727 149.053 55.4974 148.935 55.2744C148.816 55.0515 148.756 54.8069 148.756 54.5386C148.756 53.9975 148.965 53.5711 149.381 53.2573C149.797 52.9434 150.37 52.7876 151.101 52.7876C151.743 52.7876 152.25 52.924 152.619 53.1988C152.987 53.4737 153.173 53.8481 153.173 54.3265V54.4239H152.334C152.319 54.1165 152.2 53.8806 151.976 53.7183C151.752 53.5559 151.435 53.4737 151.026 53.4737C150.616 53.4737 150.265 53.5668 150.013 53.7507C149.76 53.9347 149.635 54.1836 149.635 54.4931C149.635 54.8935 150.077 55.2095 150.961 55.4389C151.032 55.4563 151.088 55.4692 151.129 55.4801C152.091 55.7333 152.707 55.9844 152.974 56.2354C153.242 56.4865 153.377 56.8349 153.375 57.283C153.375 57.9085 153.168 58.389 152.752 58.7223C152.336 59.0556 151.737 59.2222 150.95 59.2222C150.163 59.2222 149.629 59.0707 149.252 58.7656C148.874 58.4604 148.685 58.0037 148.685 57.3912V57.2895H149.569H149.571Z" fill="black"/>
<path d="M156.958 59.1161V52.8806H159.122C159.801 52.8806 160.307 53.0235 160.644 53.307C160.98 53.5905 161.146 54.0212 161.146 54.597C161.146 55.2116 160.95 55.6618 160.56 55.9497C160.169 56.2375 159.553 56.3804 158.719 56.3804H157.788V59.1161H156.958ZM158.982 55.612C159.443 55.612 159.771 55.5341 159.969 55.3783C160.167 55.2225 160.266 54.9671 160.266 54.6143C160.266 54.2615 160.169 53.9909 159.973 53.8351C159.777 53.6793 159.447 53.6013 158.982 53.6013H157.785V55.6142H158.982V55.612Z" fill="black"/>
<path d="M164.659 59.1161H163.746L161.581 52.8806H162.513L164.237 58.1465L166.078 52.8806H166.977L164.657 59.1161H164.659Z" fill="black"/>
<path d="M170.119 59.1161H169.29V53.6295H167.231V52.8806H172.187V53.6295H170.119V59.1161Z" fill="black"/>
<path d="M171.921 59.1161V58.0513H172.861V59.1161H171.921Z" fill="black"/>
<path d="M174.299 59.1161V52.8806H175.12V58.3716H177.946V59.1161H174.301H174.299Z" fill="black"/>
<path d="M180.416 59.1161H179.587V53.6295H177.528V52.8806H182.484V53.6295H180.416V59.1161Z" fill="black"/>
<path d="M185.346 59.1161H183.389V52.8633H185.124C185.71 52.8633 186.161 52.9066 186.478 52.991C186.795 53.0754 187.075 53.2161 187.323 53.4087C187.674 53.6879 187.941 54.0558 188.125 54.5147C188.308 54.9735 188.401 55.493 188.401 56.0774C188.401 56.56 188.336 56.9994 188.204 57.3976C188.073 57.7959 187.888 58.1248 187.642 58.3802C187.392 58.6443 187.101 58.8347 186.767 58.9473C186.433 59.0598 185.961 59.1161 185.348 59.1161H185.346ZM185.536 58.3716C186.202 58.3716 186.7 58.1811 187.03 57.8002C187.359 57.4193 187.525 56.8479 187.525 56.0839C187.525 55.2744 187.34 54.6532 186.971 54.2182C186.603 53.7831 186.075 53.5645 185.391 53.5645H184.208V58.3716H185.534H185.536Z" fill="black"/>
<path d="M189.06 59.1161V58.0513H190V59.1161H189.06Z" fill="black"/>
<path d="M57.4925 42.5414H68.9169L69.1324 19.5992L76.2457 38.6456H85.0834L90.0412 25.443V0.985723L80.3412 23.4951L71.5035 0.769287H57.277L57.4925 42.5414Z" fill="#844442"/>
<path d="M103.621 0.769287L104.052 15.7034L116.554 0.985723H131.859L117.417 17.6513L132.721 42.5414L116.77 42.7579L107.717 28.6895L104.052 32.369L103.621 42.9743L89.6101 42.7579L90.0412 0.985723L103.621 0.769287Z" fill="#00B4CB"/>
</g>
<defs>
<clipPath id="clip0_114_66">
<rect width="190" height="58.4615" fill="white" transform="translate(0 0.769287)"/>
</clipPath>
</defs>
</svg>
